<svg width="39" height="32" viewBox="0 0 39 32" fill="none" xmlns="http://www.w3.org/2000/svg">
<path opacity="0.16" d="M11.64 6.04665L30.8431 13.5907C33.2949 14.5533 33.2949 17.4467 30.8431 18.4093L11.64 25.9546C9.36507 26.848 6.78945 25.3253 7.06759 23.2507L8.00009 16.296C8.02634 16.1001 8.02634 15.9025 8.00009 15.7066L7.06759 8.75198C6.78945 6.67598 9.36507 5.15198 11.64 6.04665Z" fill="url(#paint0_linear_38_90)"/>
<path d="M8.03867 16L7.06759 8.75066C6.78945 6.676 9.36507 5.15199 11.64 6.04666L30.8431 13.5907C33.2949 14.5533 33.2949 17.4467 30.8431 18.4093L11.64 25.9547C9.36507 26.848 6.78945 25.3253 7.06759 23.2507L8.03867 16ZM8.03867 16H19.293Z" fill="url(#paint1_linear_38_90)"/>
<path d="M8.03867 16L7.06759 8.75066C6.78945 6.676 9.36507 5.15199 11.64 6.04666L30.8431 13.5907C33.2949 14.5533 33.2949 17.4467 30.8431 18.4093L11.64 25.9547C9.36507 26.848 6.78945 25.3253 7.06759 23.2507L8.03867 16ZM8.03867 16H19.293" stroke="url(#paint2_linear_38_90)" stroke-width="2" stroke-linecap="round" stroke-linejoin="round"/>
<defs>
<linearGradient id="paint0_linear_38_90" x1="7.04688" y1="16.0004" x2="32.6819" y2="16.0004" gradientUnits="userSpaceOnUse">
<stop stop-color="#FFC403"/>
<stop offset="1" stop-color="#DD2D01"/>
</linearGradient>
<linearGradient id="paint1_linear_38_90" x1="7.04688" y1="16.0004" x2="32.6819" y2="16.0004" gradientUnits="userSpaceOnUse">
<stop stop-color="#DD2D01"/>
<stop offset="1" stop-color="#FFC403"/>
</linearGradient>
<linearGradient id="paint2_linear_38_90" x1="7.04688" y1="16.0004" x2="32.6819" y2="16.0004" gradientUnits="userSpaceOnUse">
<stop stop-color="#FFC403"/>
<stop offset="1" stop-color="#DD2D01"/>
</linearGradient>
</defs>
</svg>
