<svg width="24" height="23" viewBox="0 0 24 23" fill="none" xmlns="http://www.w3.org/2000/svg">
<path opacity="0.16" d="M4.80967 1.2632L20.735 8.8072C22.7683 9.76987 22.7683 12.6632 20.735 13.6259L4.80967 21.1712C2.923 22.0645 0.786999 20.5419 1.01767 18.4672L1.791 11.5125C1.81277 11.3167 1.81277 11.119 1.791 10.9232L1.01767 3.96854C0.786999 1.89254 2.923 0.368537 4.80967 1.2632Z" fill="#B1FC00"/>
<path d="M1.823 11.2165L1.01767 3.96721C0.786999 1.89255 2.923 0.368548 4.80967 1.26321L20.735 8.80721C22.7683 9.76988 22.7683 12.6632 20.735 13.6259L4.80967 21.1712C2.923 22.0645 0.786999 20.5419 1.01767 18.4672L1.823 11.2165ZM1.823 11.2165H11.1563" stroke="#B1FC00" stroke-width="2" stroke-linecap="round" stroke-linejoin="round"/>
</svg>
