<svg width="28" height="30" viewBox="0 0 28 30" fill="none" xmlns="http://www.w3.org/2000/svg">
<g clip-path="url(#clip0_36_3)" filter="url(#filter0_d_36_3)">
<g filter="url(#filter1_dd_36_3)">
<path d="M10.75 3.5V20.5M4.75 9.4C4.75 7.16 4.75 6.04 5.186 5.184C5.56949 4.43139 6.18139 3.81949 6.934 3.436C7.79 3 8.91 3 11.15 3H16.35C18.59 3 19.71 3 20.566 3.436C21.3186 3.81949 21.9305 4.43139 22.314 5.184C22.75 6.04 22.75 7.16 22.75 9.4V14.6C22.75 16.84 22.75 17.96 22.314 18.816C21.9305 19.5686 21.3186 20.1805 20.566 20.564C19.71 21 18.59 21 16.35 21H11.15C8.91 21 7.79 21 6.934 20.564C6.18139 20.1805 5.56949 19.5686 5.186 18.816C4.75 17.96 4.75 16.84 4.75 14.6V9.4Z" stroke="url(#paint0_linear_36_3)" stroke-width="1.5" stroke-linecap="round" stroke-linejoin="round"/>
</g>
</g>
<defs>
<filter id="filter0_d_36_3" x="-2.25" y="0" width="32" height="32" filterUnits="userSpaceOnUse" color-interpolation-filters="sRGB">
<feFlood flood-opacity="0" result="BackgroundImageFix"/>
<feColorMatrix in="SourceAlpha" type="matrix" values="0 0 0 0 0 0 0 0 0 0 0 0 0 0 0 0 0 0 127 0" result="hardAlpha"/>
<feOffset dy="4"/>
<feGaussianBlur stdDeviation="2"/>
<feComposite in2="hardAlpha" operator="out"/>
<feColorMatrix type="matrix" values="0 0 0 0 0 0 0 0 0 0 0 0 0 0 0 0 0 0 0.25 0"/>
<feBlend mode="normal" in2="BackgroundImageFix" result="effect1_dropShadow_36_3"/>
<feBlend mode="normal" in="SourceGraphic" in2="effect1_dropShadow_36_3" result="shape"/>
</filter>
<filter id="filter1_dd_36_3" x="-14" y="-7.75" width="55.5" height="55.5" filterUnits="userSpaceOnUse" color-interpolation-filters="sRGB">
<feFlood flood-opacity="0" result="BackgroundImageFix"/>
<feColorMatrix in="SourceAlpha" type="matrix" values="0 0 0 0 0 0 0 0 0 0 0 0 0 0 0 0 0 0 127 0" result="hardAlpha"/>
<feOffset dy="4"/>
<feGaussianBlur stdDeviation="2"/>
<feColorMatrix type="matrix" values="0 0 0 0 0 0 0 0 0 0 0 0 0 0 0 0 0 0 0.3 0"/>
<feBlend mode="normal" in2="BackgroundImageFix" result="effect1_dropShadow_36_3"/>
<feColorMatrix in="SourceAlpha" type="matrix" values="0 0 0 0 0 0 0 0 0 0 0 0 0 0 0 0 0 0 127 0" result="hardAlpha"/>
<feMorphology radius="6" operator="dilate" in="SourceAlpha" result="effect2_dropShadow_36_3"/>
<feOffset dy="8"/>
<feGaussianBlur stdDeviation="6"/>
<feColorMatrix type="matrix" values="0 0 0 0 0 0 0 0 0 0 0 0 0 0 0 0 0 0 0.15 0"/>
<feBlend mode="normal" in2="effect1_dropShadow_36_3" result="effect2_dropShadow_36_3"/>
<feBlend mode="normal" in="SourceGraphic" in2="effect2_dropShadow_36_3" result="shape"/>
</filter>
<linearGradient id="paint0_linear_36_3" x1="4.75" y1="12" x2="22.75" y2="12" gradientUnits="userSpaceOnUse">
<stop stop-color="#FFC403"/>
<stop offset="1" stop-color="#DD2D01"/>
</linearGradient>
<clipPath id="clip0_36_3">
<rect width="24" height="24" fill="white" transform="translate(1.75)"/>
</clipPath>
</defs>
</svg>
